<svg width="123" height="123" viewBox="0 0 123 123" fill="none" xmlns="http://www.w3.org/2000/svg">
<path fill-rule="evenodd" clip-rule="evenodd" d="M61.5 123C95.4655 123 123 95.4655 123 61.5C123 27.5345 95.4655 0 61.5 0C27.5345 0 0 27.5345 0 61.5C0 95.4655 27.5345 123 61.5 123ZM61.5 76.875C69.9914 76.875 76.875 69.9914 76.875 61.5C76.875 53.0086 69.9914 46.125 61.5 46.125C53.0086 46.125 46.125 53.0086 46.125 61.5C46.125 69.9914 53.0086 76.875 61.5 76.875Z" fill="#00BAF7"/>
<path d="M90.5 62C90.5 77.7168 77.5397 90.5 61.5 90.5C45.4603 90.5 32.5 77.7168 32.5 62C32.5 46.2832 45.4603 33.5 61.5 33.5C77.5397 33.5 90.5 46.2832 90.5 62Z" stroke="#00A1D6" stroke-width="3"/>
<circle cx="61.5" cy="61.5" r="56" stroke="#00A1D6" stroke-width="3"/>
<path d="M44.3305 96.4998L37.5244 106.403L29.6039 100.961C29.2365 100.709 28.969 100.39 28.8014 100.004C28.6182 99.6213 28.539 99.2154 28.5636 98.7861C28.5881 98.3569 28.7235 97.9632 28.9696 97.6051L30.7682 94.988C31.0143 94.6299 31.3333 94.3624 31.7252 94.1856C32.1108 94.0179 32.5183 93.9464 32.9475 93.9709C33.3613 93.9984 33.7518 94.1383 34.1192 94.3907L40.0656 98.4564L42.3469 95.1368L44.3305 96.4998ZM38.6009 100.411L32.843 96.4542C32.8155 96.4353 32.7939 96.4273 32.7785 96.4301C32.7475 96.4359 32.7257 96.4479 32.713 96.4663L31.0375 98.9043C31.0186 98.9319 31.0152 98.9566 31.0272 98.9784C31.0238 99.0031 31.0359 99.0249 31.0634 99.0438L36.8213 103C36.8489 103.019 36.8781 103.026 36.9091 103.02C36.9246 103.017 36.9418 103.002 36.9608 102.974L38.6362 100.536C38.6489 100.518 38.6569 100.496 38.6603 100.472C38.6483 100.45 38.6285 100.43 38.6009 100.411Z" fill="white"/>
<path d="M33.5952 88.6729L23.8212 95.6926L17.3468 86.6793L19.3151 85.2656L24.366 92.2971L26.2936 90.9126L22.2276 85.2522L24.2095 83.8287L28.2756 89.4892L30.2032 88.1047L25.1524 81.0733L27.1207 79.6596L33.5952 88.6729Z" fill="white"/>
<path d="M23.841 69.1019L20.7013 73.6665L19.8573 70.6225L22.4375 66.8548L23.1623 66.6539L23.841 69.1019ZM26.3685 78.2178L14.7883 81.428L12.2207 72.1672C12.1016 71.7377 12.1018 71.3214 12.2213 70.9183C12.3271 70.5074 12.5273 70.1454 12.8221 69.8325C13.1169 69.5195 13.4737 69.305 13.8924 69.1889L16.9526 68.3406C17.3713 68.2245 17.7876 68.2247 18.2015 68.3412C18.6046 68.4607 18.9627 68.6679 19.2757 68.9627C19.575 69.2497 19.7841 69.608 19.9032 70.0375L21.8439 76.9746L25.7254 75.8986L26.3685 78.2178ZM19.4656 77.5298L17.5991 70.7976C17.5902 70.7654 17.5789 70.7454 17.5651 70.7376C17.5377 70.7221 17.5133 70.7173 17.4918 70.7233L14.641 71.5135C14.6088 71.5225 14.5903 71.5392 14.5855 71.5636C14.567 71.5803 14.5623 71.6048 14.5712 71.637L16.4377 78.3692C16.4467 78.4014 16.4648 78.4253 16.4923 78.4408C16.506 78.4485 16.5289 78.448 16.5612 78.439L19.4119 77.6488C19.4334 77.6428 19.4534 77.6315 19.4719 77.6148C19.4767 77.5903 19.4746 77.562 19.4656 77.5298Z" fill="white"/>
<path d="M23.236 62.5323C23.1947 62.9649 23.0512 63.3541 22.8055 63.7C22.5487 64.0449 22.2328 64.3057 21.8578 64.4826C21.4716 64.6584 21.0567 64.7251 20.613 64.6828L19.5981 64.5859L19.8268 62.1901L20.7253 62.2759C20.7586 62.279 20.7868 62.2761 20.8101 62.2672C20.8233 62.246 20.8309 62.2244 20.833 62.2022L21.4986 55.231C21.5007 55.2088 21.4973 55.1861 21.4883 55.1629C21.4682 55.1386 21.4415 55.1248 21.4083 55.1216L19.2287 54.9136C19.2065 54.9115 19.1888 54.921 19.1756 54.9421C19.1513 54.9622 19.1381 54.9833 19.136 55.0055L18.461 62.0765C18.4197 62.5091 18.2762 62.8983 18.0305 63.2442C17.7737 63.5891 17.4522 63.8494 17.0661 64.0252C16.6799 64.201 16.2706 64.2683 15.838 64.227L13.4255 63.9967C12.9819 63.9544 12.5926 63.8109 12.2578 63.5663C11.9119 63.3206 11.651 63.0047 11.4752 62.6185C11.2883 62.2313 11.2155 61.8214 11.2568 61.3889L11.9446 54.1847C11.9859 53.7522 12.1344 53.369 12.3901 53.0352C12.6358 52.6893 12.9522 52.4229 13.3395 52.236C13.7156 52.0481 14.1255 51.9753 14.5691 52.0176L15.584 52.1145L15.3521 54.5436L14.4537 54.4578C14.4204 54.4546 14.3972 54.4636 14.384 54.4847C14.3597 54.5048 14.3465 54.5259 14.3443 54.5481L13.6788 61.5193C13.6767 61.5415 13.6857 61.5647 13.7058 61.589C13.7158 61.6012 13.7374 61.6089 13.7707 61.612L15.9503 61.8201C15.9724 61.8222 15.9952 61.8188 16.0184 61.8098C16.0316 61.7887 16.0393 61.767 16.0414 61.7448L16.7196 54.6405C16.7609 54.208 16.9094 53.8248 17.1651 53.491C17.4108 53.1451 17.7273 52.8787 18.1145 52.6918C18.5017 52.5049 18.9116 52.4321 19.3442 52.4734L21.7566 52.7037C22.2003 52.746 22.5946 52.8956 22.9394 53.1523C23.2732 53.4081 23.5335 53.7295 23.7204 54.1167C23.8972 54.4918 23.965 54.8956 23.9237 55.3282L23.236 62.5323Z" fill="white"/>
<path d="M25.7027 49.0948C25.5045 49.494 25.2288 49.8112 24.8757 50.0464C24.5175 50.2667 24.1292 50.3974 23.7108 50.4385C23.2873 50.4646 22.8759 50.3786 22.4767 50.1804L16.0095 46.9702C15.6103 46.772 15.298 46.4989 15.0728 46.1507C14.8426 45.7876 14.7119 45.3993 14.6808 44.9859C14.6447 44.5574 14.7258 44.1436 14.924 43.7444L18.1346 37.2774C18.3278 36.8882 18.6035 36.5834 18.9617 36.3632C19.3148 36.1279 19.7056 35.9923 20.134 35.9562C20.5525 35.9151 20.9613 35.9936 21.3605 36.1918L27.8278 39.402C28.227 39.6002 28.5417 39.8808 28.772 40.2439C28.9922 40.602 29.1204 40.9953 29.1565 41.4237C29.1876 41.8372 29.1065 42.2386 28.9133 42.6278L25.7027 49.0948ZM23.5765 47.9275L26.6831 41.67C26.698 41.6401 26.7029 41.6177 26.6979 41.6027C26.6878 41.5729 26.6678 41.5505 26.6379 41.5356L20.3803 38.4294C20.3503 38.4146 20.3254 38.4146 20.3055 38.4297C20.2806 38.4297 20.2607 38.4447 20.2458 38.4747L17.1393 44.7321C17.1244 44.7621 17.122 44.792 17.132 44.8218C17.1371 44.8368 17.1545 44.8517 17.1845 44.8665L23.4421 47.9727C23.4721 47.9876 23.4995 47.995 23.5244 47.9949C23.5443 47.9799 23.5617 47.9574 23.5765 47.9275Z" fill="white"/>
<path d="M31.0483 39.0457L22.9094 30.1819L24.7931 28.4526L35.6509 29.874L29.9763 23.694L31.7738 22.0437L39.9127 30.9075L38.029 32.6368L27.124 31.2134L32.8212 37.418L31.0483 39.0457Z" fill="white"/>
<path d="M41.527 29.8927L38.011 20.9309C37.8483 20.516 37.8003 20.1039 37.8672 19.6947C37.9403 19.271 38.1042 18.8955 38.3588 18.5683C38.6197 18.2265 38.9576 17.9743 39.3726 17.8115L46.0785 15.181C46.4934 15.0183 46.9075 14.9755 47.3209 15.0528C47.7405 15.1156 48.1212 15.2774 48.4629 15.5383C48.8006 15.7889 49.0508 16.1216 49.2136 16.5365L52.7295 25.4984L50.4579 26.3894L49.0112 22.702L42.3208 25.3264L43.7675 29.0139L41.527 29.8927ZM41.4418 23.086L48.1323 20.4615L46.9847 17.5365C46.9725 17.5054 46.954 17.4887 46.9291 17.4865C46.9106 17.4698 46.8858 17.4676 46.8547 17.4798L40.351 20.0309C40.3199 20.0431 40.298 20.0637 40.2854 20.0926C40.2791 20.107 40.2821 20.1298 40.2943 20.1609L41.4418 23.086Z" fill="white"/>
<path d="M54.5805 25.2125L54.3821 13.1639L56.7885 13.1242L56.947 22.7498L66.5726 22.5913L66.6125 25.0144L54.5805 25.2125Z" fill="white"/>
<path d="M76.8324 28.7207L81.25 20.1861L76.9751 17.9737L78.0891 15.8215L88.7763 21.3524L87.6623 23.5046L83.4023 21.2999L78.9847 29.8346L76.8324 28.7207Z" fill="white"/>
<path d="M90.6861 39.826L91.4165 34.3342L93.5483 36.6652L92.9556 41.1931L92.4006 41.7006L90.6861 39.826ZM84.302 32.8453L93.1702 24.7361L99.6559 31.8278C99.9567 32.1566 100.145 32.5278 100.221 32.9413C100.313 33.3555 100.299 33.7689 100.178 34.1815C100.057 34.594 99.836 34.9469 99.5153 35.2402L97.1718 37.3831C96.8511 37.6763 96.4799 37.8648 96.0582 37.9485C95.6446 38.0246 95.2316 38.0022 94.819 37.8813C94.4221 37.761 94.0733 37.5365 93.7725 37.2076L88.8988 31.9032L85.9262 34.6213L84.302 32.8453ZM90.7672 30.3305L95.482 35.4859C95.5046 35.5105 95.5237 35.5232 95.5395 35.5239C95.5709 35.5253 95.5949 35.5185 95.6114 35.5035L97.7945 33.5072C97.8192 33.4846 97.8281 33.4614 97.8213 33.4374C97.8302 33.4141 97.8234 33.3902 97.8008 33.3655L93.086 28.2102C93.0635 28.1855 93.0365 28.1725 93.005 28.1711C92.9892 28.1704 92.969 28.1813 92.9444 28.2039L90.7612 30.2002C90.7448 30.2152 90.7321 30.2343 90.7232 30.2576C90.73 30.2816 90.7447 30.3059 90.7672 30.3305Z" fill="white"/>
<path d="M93.3598 43.2394L102.323 39.727C102.738 39.5644 103.15 39.5166 103.559 39.5836C103.983 39.6569 104.358 39.821 104.686 40.0757C105.027 40.3367 105.279 40.6747 105.442 41.0897L108.071 47.7964C108.233 48.2114 108.276 48.6255 108.199 49.0388C108.136 49.4584 107.974 49.839 107.713 50.1806C107.462 50.5182 107.129 50.7682 106.714 50.9309L97.7509 54.4432L96.8605 52.1713L100.548 50.7261L97.926 44.035L94.238 45.4801L93.3598 43.2394ZM100.167 43.1569L102.789 49.848L105.715 48.7017C105.746 48.6895 105.763 48.671 105.765 48.6461C105.782 48.6276 105.784 48.6028 105.772 48.5717L103.222 42.0672C103.21 42.0361 103.19 42.0143 103.161 42.0016C103.146 41.9953 103.123 41.9983 103.092 42.0105L100.167 43.1569Z" fill="white"/>
<path d="M97.6277 56.2393L109.552 54.6234L109.873 56.9918L97.9487 58.6076L97.6277 56.2393Z" fill="white"/>
<path d="M98.5575 60.3364L110.526 61.5868L110.26 64.1301L101.184 70.2565L109.529 71.1283L109.275 73.5552L97.3069 72.3048L97.5727 69.7615L106.685 63.6053L98.3074 62.73L98.5575 60.3364Z" fill="white"/>
<path d="M96.6784 74.1262L107.471 79.4486L102.562 89.4015L100.388 88.3296L104.218 80.5652L102.09 79.5155L99.0066 85.766L96.8181 84.6867L99.9011 78.4362L97.7725 77.3865L93.9429 85.1509L91.7694 84.079L96.6784 74.1262Z" fill="white"/>
<path d="M83.9945 91.9382L89.4997 92.5618L87.2104 94.7383L82.6715 94.2337L82.1533 93.6886L83.9945 91.9382ZM90.8504 85.4203L99.1309 94.1289L92.1659 100.75C91.8429 101.058 91.4754 101.253 91.0635 101.337C90.6511 101.437 90.2375 101.431 89.8226 101.318C89.4078 101.205 89.0506 100.991 88.7512 100.676L86.563 98.3748C86.2636 98.0599 86.0679 97.6924 85.9761 97.2724C85.8919 96.8605 85.9062 96.4471 86.0192 96.0323C86.1317 95.6332 86.3495 95.2801 86.6725 94.973L91.8816 89.9976L89.1061 87.0786L90.8504 85.4203ZM93.4904 91.835L88.4272 96.6486C88.403 96.6717 88.3907 96.6911 88.3903 96.7068C88.3895 96.7383 88.3967 96.7621 88.4121 96.7783L90.4506 98.9221C90.4736 98.9463 90.497 98.9548 90.5208 98.9475C90.5443 98.956 90.5681 98.9487 90.5923 98.9257L95.6555 94.1121C95.6798 94.0891 95.6923 94.0618 95.6931 94.0303C95.6935 94.0145 95.6821 93.9946 95.6591 93.9703L93.6206 91.8265C93.6053 91.8104 93.5859 91.798 93.5625 91.7896C93.5386 91.7969 93.5146 91.812 93.4904 91.835Z" fill="white"/>
</svg>
